<?xml version="1.0" encoding="UTF-8" standalone="no"?>
<!-- Created with Inkscape (http://www.inkscape.org/) -->

<svg
   xmlns:dc="http://purl.org/dc/elements/1.1/"
   xmlns:cc="http://creativecommons.org/ns#"
   xmlns:rdf="http://www.w3.org/1999/02/22-rdf-syntax-ns#"
   xmlns:svg="http://www.w3.org/2000/svg"
   xmlns="http://www.w3.org/2000/svg"
   xmlns:sodipodi="http://sodipodi.sourceforge.net/DTD/sodipodi-0.dtd"
   xmlns:inkscape="http://www.inkscape.org/namespaces/inkscape"
   width="111.41154mm"
   height="112.44791mm"
   viewBox="0 0 111.41154 112.44791"
   version="1.1"
   id="svg4508"
   inkscape:version="0.92.1 r15371"
   sodipodi:docname="dark.svg">
  <defs
     id="defs4502">
    <filter
       style="color-interpolation-filters:sRGB"
       inkscape:label="Blur"
       id="filter5097">
      <feGaussianBlur
         stdDeviation="2 2"
         result="blur"
         id="feGaussianBlur5095" />
    </filter>
    <filter
       style="color-interpolation-filters:sRGB"
       inkscape:label="Blur"
       id="filter5124">
      <feGaussianBlur
         stdDeviation="1 1"
         result="blur"
         id="feGaussianBlur5122" />
    </filter>
    <filter
       style="color-interpolation-filters:sRGB"
       inkscape:label="Blur"
       id="filter5128">
      <feGaussianBlur
         stdDeviation="3 3"
         result="blur"
         id="feGaussianBlur5126" />
    </filter>
  </defs>
  <sodipodi:namedview
     id="base"
     pagecolor="#ffffff"
     bordercolor="#666666"
     borderopacity="1.0"
     inkscape:pageopacity="0.0"
     inkscape:pageshadow="2"
     inkscape:zoom="1"
     inkscape:cx="216.78869"
     inkscape:cy="190.99995"
     inkscape:document-units="mm"
     inkscape:current-layer="layer1"
     showgrid="false"
     inkscape:window-width="1366"
     inkscape:window-height="705"
     inkscape:window-x="-8"
     inkscape:window-y="-8"
     inkscape:window-maximized="1"
     fit-margin-top="0"
     fit-margin-left="0"
     fit-margin-right="0"
     fit-margin-bottom="0" />
  <metadata
     id="metadata4505">
    <rdf:RDF>
      <cc:Work
         rdf:about="">
        <dc:format>image/svg+xml</dc:format>
        <dc:type
           rdf:resource="http://purl.org/dc/dcmitype/StillImage" />
        <dc:title></dc:title>
      </cc:Work>
    </rdf:RDF>
  </metadata>
  <g
     inkscape:label="Layer 1"
     inkscape:groupmode="layer"
     id="layer1"
     transform="translate(-43.380692,-86.92083)">
    <rect
       style="opacity:1;fill:#333333;fill-opacity:1;stroke:none;stroke-width:0.23403411;stroke-opacity:1"
       id="rect5059"
       width="111.41154"
       height="112.44791"
       x="43.380692"
       y="86.92083" />
    <path
       inkscape:connector-curvature="0"
       style="fill:#0000ff;stroke-width:1.80862296;filter:url(#filter5128)"
       d="m 74.878037,134.88844 c -1.501157,0 -2.712933,1.21177 -2.712933,2.71293 v 11.08686 c 0,1.50114 1.211776,2.71294 2.712933,2.71294 h 11.086859 c 1.501158,0 2.712935,-1.2118 2.712935,-2.71294 v -11.08686 c 0,-1.50116 -1.211777,-2.71293 -2.712935,-2.71293 z m -0.07234,2.15225 h 1.374555 l 2.622503,4.21409 -0.05427,-0.43406 v -3.79812 h 0.813881 v 6.23976 h -1.030915 l -2.929969,-4.66624 h -0.01809 l 0.07234,0.54257 v 4.12367 h -0.831959 z m 18.737334,-2.15225 c -1.501157,0 -2.712935,1.21177 -2.712935,2.71293 v 11.08686 c 0,1.50114 1.211778,2.71294 2.712935,2.71294 h 11.086859 c 1.50116,0 2.71293,-1.2118 2.71293,-2.71294 v -11.08686 c 0,-1.50116 -1.21177,-2.71293 -2.71293,-2.71293 z m 0.542587,2.15225 h 3.725763 v 0.68729 h -2.405469 v 2.04373 h 2.11609 v 0.6692 h -2.11609 v 2.13416 h 2.532073 v 0.68729 h -3.852374 z m 18.122402,-2.15225 c -1.50116,0 -2.71293,1.21177 -2.71293,2.71293 v 11.08686 c 0,1.50114 1.21177,2.71294 2.71293,2.71294 h 11.08686 c 1.50115,0 2.71294,-1.2118 2.71294,-2.71294 v -11.08686 c 0,-1.50116 -1.21179,-2.71293 -2.71294,-2.71293 z m 0.27129,2.15225 h 1.91714 c 0.70537,0 1.26604,0.18089 1.64585,0.5245 0.3979,0.32555 0.59685,0.81388 0.59685,1.42881 a 1.8628815,1.8628815 0 0 1 -1.08518,1.73628 l 1.4469,2.53208 h -1.51924 l -1.17561,-2.26078 h -0.50641 v 2.26078 h -1.3203 z m 1.3203,0.61493 v 2.71294 h 0.48833 c 0.23512,0 0.41598,-0.0362 0.54258,-0.10854 a 0.6872767,0.6872767 0 0 0 0.28938,-0.41597 c 0.0724,-0.18089 0.0904,-0.45217 0.0904,-0.7958 0,-0.48833 -0.0723,-0.85005 -0.21704,-1.06708 -0.14469,-0.21703 -0.37981,-0.32557 -0.72345,-0.32557 z m -10.68896,15.8978 c -1.50116,0 -2.71294,1.21177 -2.71294,2.71293 v 11.08686 c 0,1.50117 1.21178,2.71294 2.71294,2.71294 h 11.08686 c 1.50115,0 2.71293,-1.21177 2.71293,-2.71294 v -11.08686 c 0,-1.50116 -1.21178,-2.71293 -2.71293,-2.71293 z m -0.36173,2.15227 h 1.39264 l 1.48307,5.245 h 0.0362 l 1.59159,-5.245 h 0.83197 l -1.98949,6.22165 h -1.48307 z M 88.261855,116.22344 c -1.483072,0 -2.712935,1.21179 -2.712935,2.71293 v 11.08686 c 0,1.50116 1.229863,2.71294 2.712935,2.71294 H 99.3668 c 1.50116,0 2.71293,-1.21178 2.71293,-2.71294 v -11.08686 c 0,-1.50114 -1.21177,-2.71293 -2.71293,-2.71293 z m -0.03618,2.17036 h 2.116089 c 0.976657,0 1.700106,0.2532 2.224606,0.79578 0.524502,0.52451 0.777708,1.30222 0.777708,2.31505 0,1.01282 -0.253206,1.77244 -0.759621,2.31504 -0.506415,0.52448 -1.266036,0.77769 -2.224608,0.77769 h -2.134174 z m 1.320296,0.66918 v 4.84711 h 0.813878 c 0.361726,0 0.669191,-0.0724 0.886227,-0.21703 a 1.3564672,1.3564672 0 0 0 0.488328,-0.75962 c 0.108515,-0.36173 0.144693,-0.83197 0.144693,-1.42881 0,-0.59686 -0.05425,-1.08519 -0.162782,-1.44691 a 1.3745534,1.3745534 0 0 0 -0.470239,-0.75962 1.501157,1.501157 0 0 0 -0.904312,-0.23512 z"
       id="path4" />
  </g>
  <g
     inkscape:groupmode="layer"
     id="layer3"
     inkscape:label="light"
     sodipodi:insensitive="true"
     transform="translate(-43.380692,-86.92083)">
    <path
       id="path5061-2"
       d="m 74.878037,134.88844 c -1.501157,0 -2.712933,1.21177 -2.712933,2.71293 v 11.08686 c 0,1.50114 1.211776,2.71294 2.712933,2.71294 h 11.086859 c 1.501158,0 2.712935,-1.2118 2.712935,-2.71294 v -11.08686 c 0,-1.50116 -1.211777,-2.71293 -2.712935,-2.71293 z m -0.07234,2.15225 h 1.374555 l 2.622503,4.21409 -0.05427,-0.43406 v -3.79812 h 0.813881 v 6.23976 h -1.030915 l -2.929969,-4.66624 h -0.01809 l 0.07234,0.54257 v 4.12367 h -0.831959 z m 18.737334,-2.15225 c -1.501157,0 -2.712935,1.21177 -2.712935,2.71293 v 11.08686 c 0,1.50114 1.211778,2.71294 2.712935,2.71294 h 11.086859 c 1.50116,0 2.71293,-1.2118 2.71293,-2.71294 v -11.08686 c 0,-1.50116 -1.21177,-2.71293 -2.71293,-2.71293 z m 0.542587,2.15225 h 3.725763 v 0.68729 h -2.405469 v 2.04373 h 2.11609 v 0.6692 h -2.11609 v 2.13416 h 2.532073 v 0.68729 h -3.852374 z m 18.122402,-2.15225 c -1.50116,0 -2.71293,1.21177 -2.71293,2.71293 v 11.08686 c 0,1.50114 1.21177,2.71294 2.71293,2.71294 h 11.08686 c 1.50115,0 2.71294,-1.2118 2.71294,-2.71294 v -11.08686 c 0,-1.50116 -1.21179,-2.71293 -2.71294,-2.71293 z m 0.27129,2.15225 h 1.91714 c 0.70537,0 1.26604,0.18089 1.64585,0.5245 0.3979,0.32555 0.59685,0.81388 0.59685,1.42881 a 1.8628815,1.8628815 0 0 1 -1.08518,1.73628 l 1.4469,2.53208 h -1.51924 l -1.17561,-2.26078 h -0.50641 v 2.26078 h -1.3203 z m 1.3203,0.61493 v 2.71294 h 0.48833 c 0.23512,0 0.41598,-0.0362 0.54258,-0.10854 a 0.68727672,0.68727672 0 0 0 0.28938,-0.41597 c 0.0724,-0.18089 0.0904,-0.45217 0.0904,-0.7958 0,-0.48833 -0.0723,-0.85005 -0.21704,-1.06708 -0.14469,-0.21703 -0.37981,-0.32557 -0.72345,-0.32557 z m -10.68896,15.8978 c -1.50116,0 -2.71294,1.21177 -2.71294,2.71293 v 11.08686 c 0,1.50117 1.21178,2.71294 2.71294,2.71294 h 11.08686 c 1.50115,0 2.71293,-1.21177 2.71293,-2.71294 v -11.08686 c 0,-1.50116 -1.21178,-2.71293 -2.71293,-2.71293 z m -0.36173,2.15227 h 1.39264 l 1.48307,5.245 h 0.0362 l 1.59159,-5.245 h 0.83197 l -1.98949,6.22165 h -1.48307 z M 88.261855,116.22344 c -1.483072,0 -2.712935,1.21179 -2.712935,2.71293 v 11.08686 c 0,1.50116 1.229863,2.71294 2.712935,2.71294 H 99.3668 c 1.50116,0 2.71293,-1.21178 2.71293,-2.71294 v -11.08686 c 0,-1.50114 -1.21177,-2.71293 -2.71293,-2.71293 z m -0.03618,2.17036 h 2.116089 c 0.976657,0 1.700106,0.2532 2.224606,0.79578 0.524502,0.52451 0.777708,1.30222 0.777708,2.31505 0,1.01282 -0.253206,1.77244 -0.759621,2.31504 -0.506415,0.52448 -1.266036,0.77769 -2.224608,0.77769 h -2.134174 z m 1.320296,0.66918 v 4.84711 h 0.813878 c 0.361726,0 0.669191,-0.0724 0.886227,-0.21703 a 1.3564672,1.3564672 0 0 0 0.488328,-0.75962 c 0.108515,-0.36173 0.144693,-0.83197 0.144693,-1.42881 0,-0.59686 -0.05425,-1.08519 -0.162782,-1.44691 a 1.3745534,1.3745534 0 0 0 -0.470239,-0.75962 1.501157,1.501157 0 0 0 -0.904312,-0.23512 z"
       style="fill:#ffffff;stroke-width:1.80862308;filter:url(#filter5124)"
       inkscape:connector-curvature="0" />
  </g>
  <g
     inkscape:groupmode="layer"
     id="layer2"
     inkscape:label="keys"
     sodipodi:insensitive="true"
     style="display:inline"
     transform="translate(-43.380692,-86.92083)">
    <path
       id="path5061"
       d="m 74.878037,134.88844 c -1.501157,0 -2.712933,1.21177 -2.712933,2.71293 v 11.08686 c 0,1.50114 1.211776,2.71294 2.712933,2.71294 h 11.086859 c 1.501158,0 2.712935,-1.2118 2.712935,-2.71294 v -11.08686 c 0,-1.50116 -1.211777,-2.71293 -2.712935,-2.71293 z m -0.07234,2.15225 h 1.374555 l 2.622503,4.21409 -0.05427,-0.43406 v -3.79812 h 0.813881 v 6.23976 h -1.030915 l -2.929969,-4.66624 h -0.01809 l 0.07234,0.54257 v 4.12367 h -0.831959 z m 18.737334,-2.15225 c -1.501157,0 -2.712935,1.21177 -2.712935,2.71293 v 11.08686 c 0,1.50114 1.211778,2.71294 2.712935,2.71294 h 11.086859 c 1.50116,0 2.71293,-1.2118 2.71293,-2.71294 v -11.08686 c 0,-1.50116 -1.21177,-2.71293 -2.71293,-2.71293 z m 0.542587,2.15225 h 3.725763 v 0.68729 h -2.405469 v 2.04373 h 2.11609 v 0.6692 h -2.11609 v 2.13416 h 2.532073 v 0.68729 h -3.852374 z m 18.122402,-2.15225 c -1.50116,0 -2.71293,1.21177 -2.71293,2.71293 v 11.08686 c 0,1.50114 1.21177,2.71294 2.71293,2.71294 h 11.08686 c 1.50115,0 2.71294,-1.2118 2.71294,-2.71294 v -11.08686 c 0,-1.50116 -1.21179,-2.71293 -2.71294,-2.71293 z m 0.27129,2.15225 h 1.91714 c 0.70537,0 1.26604,0.18089 1.64585,0.5245 0.3979,0.32555 0.59685,0.81388 0.59685,1.42881 a 1.8628815,1.8628815 0 0 1 -1.08518,1.73628 l 1.4469,2.53208 h -1.51924 l -1.17561,-2.26078 h -0.50641 v 2.26078 h -1.3203 z m 1.3203,0.61493 v 2.71294 h 0.48833 c 0.23512,0 0.41598,-0.0362 0.54258,-0.10854 a 0.68727672,0.68727672 0 0 0 0.28938,-0.41597 c 0.0724,-0.18089 0.0904,-0.45217 0.0904,-0.7958 0,-0.48833 -0.0723,-0.85005 -0.21704,-1.06708 -0.14469,-0.21703 -0.37981,-0.32557 -0.72345,-0.32557 z m -10.68896,15.8978 c -1.50116,0 -2.71294,1.21177 -2.71294,2.71293 v 11.08686 c 0,1.50117 1.21178,2.71294 2.71294,2.71294 h 11.08686 c 1.50115,0 2.71293,-1.21177 2.71293,-2.71294 v -11.08686 c 0,-1.50116 -1.21178,-2.71293 -2.71293,-2.71293 z m -0.36173,2.15227 h 1.39264 l 1.48307,5.245 h 0.0362 l 1.59159,-5.245 h 0.83197 l -1.98949,6.22165 h -1.48307 z M 88.261855,116.22344 c -1.483072,0 -2.712935,1.21179 -2.712935,2.71293 v 11.08686 c 0,1.50116 1.229863,2.71294 2.712935,2.71294 H 99.3668 c 1.50116,0 2.71293,-1.21178 2.71293,-2.71294 v -11.08686 c 0,-1.50114 -1.21177,-2.71293 -2.71293,-2.71293 z m -0.03618,2.17036 h 2.116089 c 0.976657,0 1.700106,0.2532 2.224606,0.79578 0.524502,0.52451 0.777708,1.30222 0.777708,2.31505 0,1.01282 -0.253206,1.77244 -0.759621,2.31504 -0.506415,0.52448 -1.266036,0.77769 -2.224608,0.77769 h -2.134174 z m 1.320296,0.66918 v 4.84711 h 0.813878 c 0.361726,0 0.669191,-0.0724 0.886227,-0.21703 a 1.3564672,1.3564672 0 0 0 0.488328,-0.75962 c 0.108515,-0.36173 0.144693,-0.83197 0.144693,-1.42881 0,-0.59686 -0.05425,-1.08519 -0.162782,-1.44691 a 1.3745534,1.3745534 0 0 0 -0.470239,-0.75962 1.501157,1.501157 0 0 0 -0.904312,-0.23512 z"
       style="fill:#1a1a1a;stroke-width:1.80862308"
       inkscape:connector-curvature="0" />
  </g>
</svg>
