<svg xmlns="http://www.w3.org/2000/svg" width="268.596" height="82.587" viewBox="0 0 71.066 21.851"><g letter-spacing="0" word-spacing="0" text-anchor="middle"><text style="line-height:1.25;-inkscape-font-specification:Arsenal;text-align:center" x="54.769" y="180.848" font-weight="400" font-size="10.583" font-family="Arsenal" stroke-width=".265" transform="translate(-63.674 -202.63)"/><path style="line-height:1.25;-inkscape-font-specification:'Dubai Bold';text-align:center" d="M0 12.221l9.63 9.63 1.797-1.797 8.079-8.079c.845-.845 1.443-1.79 1.795-2.835.36-1.054.39-2.153.088-3.299-.3-1.146-.986-2.254-2.056-3.324C17.58.764 15.941-.073 14.416.005 12.88.074 11.408.813 9.96 2.262L8.345 3.876 6.56 5.661l4.55 4.55-9.131.032zm10.125-6.564h.066l1.563-1.564c.578-.577 1.155-.957 1.733-1.138.567-.19 1.164-.163 1.79.083.633.237 1.322.728 2.065 1.47.802.803 1.314 1.53 1.535 2.182.22.651.203 1.272-.05 1.863-.265.581-.752 1.223-1.457 1.932l-7.736 7.776-5.48-5.481 9.12.009 1.992-1.992z" font-weight="700" font-size="22.578" font-family="Dubai" fill="#0000d4"/><path style="line-height:1.25;-inkscape-font-specification:Bahnschrift;text-align:center" d="M24.21 7.385h1.147l4.41 6.97-.15.162V7.385h1.253v9.01h-1.16l-4.396-6.864.149-.161v7.026H24.21zM33.115 7.385h1.265v9.017h-1.265zm.614 7.814h5.178v1.203h-5.178zm0-3.876h4.496v1.203h-4.496zm0-3.938h5.178v1.203h-5.178zM41.257 11.385h3.076q.36 0 .638-.173.28-.174.428-.49.155-.323.155-.738 0-.416-.155-.732-.148-.323-.428-.496-.272-.174-.638-.174h-3.076V7.38h3.026q.782 0 1.37.323.596.322.918.917.329.59.329 1.365t-.329 1.37q-.328.59-.924.912-.589.322-1.364.322h-3.026zm-.552-4.006h1.265v9.023h-1.265zm3.008 4.93l1.258-.285 2.307 4.378h-1.5z" font-weight="400" font-size="12.7" font-family="Bahnschrift"/><path style="line-height:1.25;-inkscape-font-specification:Bahnschrift;text-align:center" d="M49.846 15.199h2.04q.998 0 1.544-.515.552-.52.552-1.463v-2.654q0-.943-.552-1.458-.546-.52-1.544-.52h-2.04V7.384h2.003q1.085 0 1.854.379.769.378 1.172 1.103.403.726.403 1.75v2.554q0 1.023-.403 1.749-.403.725-1.178 1.104-.77.378-1.855.378h-1.996zm-.856-7.814h1.265v9.017H48.99zM57.324 7.385h1.265v9.017h-1.265zm.614 7.814h5.178v1.203h-5.178zm0-3.876h4.496v1.203h-4.496zm0-3.938h5.178v1.203h-5.178zM63.984 7.385h1.377l2.164 7.07 2.164-7.07h1.377l-2.94 9.017h-1.202z" font-weight="400" font-size="12.7" font-family="Bahnschrift" fill="#0000d4"/></g></svg>
