<svg xmlns="http://www.w3.org/2000/svg" width="268.596" height="82.587" viewBox="0 0 71.066 21.851"><g letter-spacing="0" word-spacing="0" text-anchor="middle"><text style="line-height:1.25;-inkscape-font-specification:Arsenal;text-align:center" x="54.769" y="180.848" font-weight="400" font-size="10.583" font-family="Arsenal" stroke-width=".265" transform="translate(-63.674 -153.682)"/><path d="M0 12.221l9.63 9.63 1.797-1.797 8.079-8.079c.845-.845 1.443-1.79 1.795-2.835.36-1.054.39-2.153.088-3.299-.3-1.146-.986-2.254-2.056-3.324C17.58.764 15.941-.073 14.416.005 12.88.074 11.408.813 9.96 2.262L8.345 3.876 6.56 5.661l4.55 4.55-9.131.032zm10.125-6.564h.066l1.563-1.564c.578-.577 1.155-.957 1.733-1.138.567-.19 1.164-.163 1.79.083.633.237 1.322.728 2.065 1.47.802.803 1.314 1.53 1.535 2.182.22.651.203 1.272-.05 1.863-.265.581-.752 1.223-1.457 1.932l-7.736 7.776-5.48-5.481 9.12.009 1.992-1.992z" style="line-height:1.25;-inkscape-font-specification:'Dubai Bold';text-align:center" font-weight="700" font-size="22.578" font-family="Dubai"/><g aria-label="NERDEV" style="line-height:1.25;-inkscape-font-specification:Bahnschrift;text-align:center" font-weight="400" font-size="12.7" font-family="Bahnschrift" stroke-width=".265"><path d="M24.21 6.327h1.147l4.41 6.97-.15.161V6.327h1.253v9.01h-1.16l-4.396-6.864.149-.162v7.026H24.21zM33.115 6.327h1.265v9.017h-1.265zm.614 7.813h5.178v1.204h-5.178zm0-3.875h4.496v1.203h-4.496zm0-3.938h5.178V7.53h-5.178zM41.257 10.327h3.076q.36 0 .638-.174.28-.173.428-.49.155-.322.155-.738 0-.415-.155-.731-.148-.323-.428-.497-.272-.173-.638-.173h-3.076V6.32h3.026q.782 0 1.37.322.596.323.918.918.329.59.329 1.364 0 .775-.329 1.37-.328.59-.924.912-.589.323-1.364.323h-3.026zm-.552-4.006h1.265v9.023h-1.265zm3.008 4.93l1.258-.286 2.307 4.379h-1.5zM49.846 14.14h2.04q.998 0 1.544-.514.552-.521.552-1.464V9.508q0-.942-.552-1.457-.546-.52-1.544-.52h-2.04V6.326h2.003q1.085 0 1.854.378.769.379 1.172 1.104.403.726.403 1.749v2.555q0 1.023-.403 1.748-.403.726-1.178 1.104-.77.379-1.855.379h-1.996zm-.856-7.813h1.265v9.017H48.99zM57.324 6.327h1.265v9.017h-1.265zm.614 7.813h5.178v1.204h-5.178zm0-3.875h4.496v1.203h-4.496zm0-3.938h5.178V7.53h-5.178zM63.984 6.327h1.377l2.164 7.07 2.164-7.07h1.377l-2.94 9.017h-1.202z" style="-inkscape-font-specification:Bahnschrift"/></g><g aria-label="AN AKWARD GROUP" style="line-height:1.25;-inkscape-font-specification:Aldrich;text-align:center" font-weight="400" font-size="4.586" font-family="Aldrich" stroke-width=".265"><path d="M25.294 16.718l1.239 3.212h-.46l-.284-.74H24.34l-.284.74h-.46l1.24-3.212zm-.779 2.013h1.097l-.546-1.415zM27.547 19.93h-.459v-3.212h.46l1.93 2.49v-2.49h.458v3.212h-.459l-1.93-2.49zM33.562 16.718L34.8 19.93h-.459l-.284-.74h-1.45l-.283.74h-.46l1.239-3.212zm-.78 2.013h1.098l-.547-1.415zM35.815 16.718v1.386l1.531-1.386h.647l-1.737 1.575 1.807 1.637h-.647l-1.601-1.445v1.445h-.46v-3.212zM39.124 19.93l-.918-3.212h.46l.711 2.555.71-2.555h.46l.71 2.555.711-2.555h.46l-.919 3.212h-.504l-.687-2.408-.69 2.408zM44.221 16.718l1.238 3.212H45l-.284-.74h-1.449l-.284.74h-.46l1.239-3.212zm-.78 2.013h1.098l-.546-1.415zM48.552 17.865q0 .672-.573.766l.604 1.298h-.508l-.596-1.283h-1.005v1.283h-.46v-3.21h1.759q.779 0 .779.78zm-2.078.322h1.274q.184 0 .264-.08.08-.08.08-.265v-.32q0-.183-.08-.264-.08-.08-.264-.08h-1.274zM50.952 19.47q.32 0 .493-.172.172-.172.172-.493v-.963q0-.156-.044-.28-.045-.123-.133-.208-.085-.087-.208-.132-.123-.045-.28-.045H49.78v2.293zm-1.632.46v-3.212h1.632q.258 0 .464.08.208.08.354.227.147.146.226.354.08.208.08.463v.963q0 .256-.08.464-.079.208-.226.356-.146.145-.354.226-.206.079-.464.079zM54.193 17.177q0-.094.035-.177.036-.085.099-.145.063-.063.145-.099.086-.038.18-.038h1.742q.094 0 .177.038.085.036.148.099.062.06.098.145.036.083.036.177v.415h-.46v-.415h-1.741v2.293h1.742v-.779h-.871v-.459h1.33v1.238q0 .095-.036.18-.036.082-.098.145-.063.063-.148.099-.083.035-.177.035h-1.742q-.094 0-.18-.035-.082-.036-.145-.099-.063-.063-.099-.145-.035-.086-.035-.18zM60.214 17.865q0 .672-.573.766l.604 1.298h-.508l-.595-1.283h-1.006v1.283h-.459v-3.21h1.758q.78 0 .78.78zm-2.078.322h1.274q.184 0 .264-.08.081-.08.081-.265v-.32q0-.183-.08-.264-.081-.08-.265-.08h-1.274zM63.734 19.47q0 .095-.035.18-.036.082-.099.145-.063.063-.148.099-.083.035-.177.035h-1.834q-.094 0-.179-.035-.083-.036-.145-.099-.063-.063-.099-.145-.036-.086-.036-.18v-2.293q0-.094.036-.177.036-.085.099-.145.062-.063.145-.099.085-.038.18-.038h1.833q.094 0 .177.038.085.036.148.099.063.06.099.145.035.083.035.177zm-2.293-2.293v2.293h1.834v-2.293zM64.556 16.718h.46v2.752h1.833v-2.752h.46v2.752q0 .095-.037.18-.035.082-.098.145-.063.063-.148.099-.083.035-.177.035h-1.834q-.094 0-.179-.035-.083-.036-.145-.099-.063-.063-.099-.145-.036-.086-.036-.18zM68.13 19.93v-3.212h1.758q.78 0 .78.782v.457q0 .781-.78.781h-1.299v1.192zm.46-1.65h1.273q.184 0 .265-.081.08-.081.08-.265v-.412q0-.183-.08-.264-.081-.08-.265-.08H68.59z" style="-inkscape-font-specification:Aldrich"/></g></g></svg>
