<svg xmlns="http://www.w3.org/2000/svg" width="450.89" height="112.5" viewBox="0 0 119.3 29.77"><text style="line-height:1.25;-inkscape-font-specification:Arsenal;text-align:center" x="95.78" y="136.93" font-weight="400" font-size="10.58" font-family="Arsenal" letter-spacing="0" word-spacing="0" text-anchor="middle" stroke-width=".26" transform="translate(-36.84 -134.88)"/><path d="M1.5 10.32c-.83 0-1.5.67-1.5 1.5v6.13c0 .83.67 1.5 1.5 1.5h6.13c.83 0 1.5-.67 1.5-1.5v-6.13c0-.83-.67-1.5-1.5-1.5zm-.04 1.19h.76l1.45 2.33-.03-.24v-2.1h.45v3.45h-.57L1.9 12.37h-.01l.04.3v2.28h-.46zM11.82 10.32c-.83 0-1.5.67-1.5 1.5v6.13c0 .83.67 1.5 1.5 1.5h6.13c.83 0 1.5-.67 1.5-1.5v-6.13c0-.83-.67-1.5-1.5-1.5zm.3 1.19h2.06v.38h-1.33v1.13h1.17v.37h-1.17v1.18h1.4v.38h-2.13zM22.14 10.32c-.83 0-1.5.67-1.5 1.5v6.13c0 .83.67 1.5 1.5 1.5h6.13c.83 0 1.5-.67 1.5-1.5v-6.13c0-.83-.67-1.5-1.5-1.5zm.15 1.19h1.06c.39 0 .7.1.91.29.22.18.33.45.33.79a1.03 1.03 0 0 1-.6.96l.8 1.4h-.84l-.65-1.25h-.28v1.25h-.73zm.73.34v1.5h.27c.13 0 .23-.02.3-.06a.38.38 0 0 0 .16-.23c.04-.1.05-.25.05-.44 0-.27-.04-.47-.12-.59-.08-.12-.21-.18-.4-.18zM17.11 20.64c-.83 0-1.5.67-1.5 1.5v6.13c0 .83.67 1.5 1.5 1.5h6.13c.83 0 1.5-.67 1.5-1.5v-6.13c0-.83-.67-1.5-1.5-1.5zm-.2 1.19h.77l.82 2.9h.02l.88-2.9h.46l-1.1 3.44h-.82zM8.9 0c-.82 0-1.5.67-1.5 1.5v6.13c0 .83.68 1.5 1.5 1.5h6.14c.83 0 1.5-.67 1.5-1.5V1.5c0-.83-.67-1.5-1.5-1.5zm-.02 1.2h1.17c.54 0 .94.14 1.23.44.29.29.43.72.43 1.28s-.14.98-.42 1.28c-.28.29-.7.43-1.23.43H8.88zm.73.37v2.68h.45c.2 0 .37-.04.49-.12a.75.75 0 0 0 .27-.42c.06-.2.08-.46.08-.79s-.03-.6-.09-.8a.76.76 0 0 0-.26-.42.83.83 0 0 0-.5-.13z" fill="#d45500"/><path style="line-height:1.25;-inkscape-font-specification:'Corbel Bold';text-align:start" d="M45.08 17.69q1.54 2.19 2.5 3.88h.07q-.13-2.78-.13-4.05v-6.48h2.62v14.3h-2.75l-4.65-6.58q-1.23-1.71-2.55-3.97h-.06q.13 2.63.13 4.07v6.47h-2.62V11.04h2.75zM56.2 23.14h7.02v2.2h-9.64v-14.3h9.25v2.2H56.2v3.69h5.7v2.19h-5.7zM76.58 15.34q0 1.5-.83 2.54t-2.56 1.54v.04l4.25 5.87H74.3l-3.88-5.53h-1.8v5.53h-2.61V11.04h4.34q1.08 0 2.01.13.93.12 1.6.37 1.25.48 1.94 1.43.68.94.68 2.37zm-6.66 2.27q.9 0 1.51-.07.63-.09 1.06-.25.79-.3 1.09-.81.3-.52.3-1.2 0-.57-.24-1.01-.23-.45-.8-.7-.38-.18-.95-.25-.56-.09-1.4-.09h-1.87v4.38zM79.76 25.33V11.04h3.78q.5 0 1.02.04.52.03 1.01.1.5.06.95.15.46.09.85.22 1.14.36 2.01.98.88.62 1.47 1.46.6.85.9 1.9.3 1.03.3 2.25 0 1.15-.25 2.16-.26 1-.78 1.84-.52.83-1.33 1.47-.79.63-1.88 1.04-.9.34-2.06.51-1.15.17-2.6.17zm3.7-2.19q2.3 0 3.59-.63 1.14-.56 1.73-1.64.58-1.08.58-2.76 0-.87-.19-1.58-.2-.7-.55-1.25-.37-.55-.9-.95-.5-.4-1.15-.65-.61-.23-1.36-.34-.75-.1-1.68-.1h-1.15v9.9zM97.46 23.14h7.03v2.2h-9.65v-14.3h9.26v2.2h-6.64v3.69h5.7v2.19h-5.7zM112.57 21.84l.57-1.65.74-2.04 2.65-7.1h2.77l-5.59 14.28h-2.35l-5.58-14.29h2.79l2.64 7.1q.57 1.54.74 2.05l.58 1.65z" font-weight="700" font-size="21.87" font-family="Corbel" letter-spacing="0" word-spacing="0"/></svg>
